<svg width="101" height="101" viewBox="0 0 101 101" fill="none" xmlns="http://www.w3.org/2000/svg">
<g opacity="0.3">
<path d="M10 181C-39.7056 181 -80 140.706 -80 91C-80 41.2944 -39.7056 1 10 1C59.7056 1 100 41.2944 100 91C100 140.706 59.7056 181 10 181Z" stroke="url(#paint0_linear_11961_8202)"/>
<path d="M11.534 146.557C-19.1034 146.557 -43.9399 121.721 -43.9399 91.0832C-43.9399 60.4459 -19.1034 35.6094 11.534 35.6094C42.1713 35.6094 67.0078 60.4459 67.0078 91.0832C67.0078 121.721 42.1713 146.557 11.534 146.557Z" stroke="url(#paint1_linear_11961_8202)"/>
</g>
<defs>
<linearGradient id="paint0_linear_11961_8202" x1="10" y1="1" x2="10" y2="181" gradientUnits="userSpaceOnUse">
<stop stop-color="white" stop-opacity="0.4"/>
<stop offset="0.465" stop-color="white"/>
<stop offset="1" stop-color="white" stop-opacity="0.4"/>
</linearGradient>
<linearGradient id="paint1_linear_11961_8202" x1="11.534" y1="35.6094" x2="11.534" y2="146.557" gradientUnits="userSpaceOnUse">
<stop stop-color="white" stop-opacity="0.4"/>
<stop offset="0.465" stop-color="white"/>
<stop offset="1" stop-color="white" stop-opacity="0.6"/>
</linearGradient>
</defs>
</svg>
