<svg width="40" height="8" viewBox="0 0 40 8" fill="none" xmlns="http://www.w3.org/2000/svg">
<path d="M4 0.5C5.9671 0.5 7.5 2.10267 7.5 4C7.5 5.89733 5.9671 7.5 4 7.5C2.10267 7.5 0.500001 5.9671 0.5 4C0.5 2.10267 2.0329 0.500001 4 0.5Z" stroke="#AFAFAF"/>
<path d="M20 0.5C21.9671 0.5 23.5 2.10267 23.5 4C23.5 5.89733 21.9671 7.5 20 7.5C18.1027 7.5 16.5 5.9671 16.5 4C16.5 2.10267 18.0329 0.500001 20 0.5Z" stroke="#AFAFAF"/>
<path d="M36 0.5C37.9671 0.5 39.5 2.10267 39.5 4C39.5 5.89733 37.9671 7.5 36 7.5C34.1027 7.5 32.5 5.9671 32.5 4C32.5 2.10267 34.0329 0.500001 36 0.5Z" stroke="#AFAFAF"/>
</svg>
