<svg width="215" height="78" viewBox="0 0 215 78" fill="none" xmlns="http://www.w3.org/2000/svg">
<g clip-path="url(#clip0_11961_8700)">
<path d="M100.484 78.0001C82.7186 78.0001 65.2766 76.1867 50.0369 72.789C29.2181 68.1199 13.3618 60.8451 5.34556 52.2572C1.38148 47.9841 -0.439057 43.4609 0.0894867 39.1669C0.676758 34.602 3.7893 30.308 9.36837 26.4101C15.2998 22.262 23.8152 18.6559 34.7385 15.6752C46.4839 12.486 61.0776 10.0055 78.1085 8.29625C88.6794 7.23318 99.4852 6.71207 110.262 6.71207C131.198 6.71207 161.413 8.75483 186.519 18.4683L186.548 18.4892C186.812 18.5934 186.989 18.7602 187.077 18.9478C187.165 19.1354 187.135 19.3647 186.989 19.5523C186.783 19.8024 186.431 19.9483 186.02 19.9483C185.843 19.9483 185.638 19.9066 185.491 19.8441C175.302 15.9045 163.204 12.9029 149.579 10.9643C137.276 9.19256 123.945 8.29625 109.997 8.29625C99.3677 8.29625 88.7381 8.81736 78.4021 9.83874C37.6749 13.9243 19.2345 21.6992 10.9246 27.5148C5.72729 31.1626 2.8203 35.1231 2.29175 39.3128C1.79257 43.2941 3.43693 47.3588 7.19547 51.3818C14.8006 59.5319 30.657 66.7858 50.7123 71.2882C65.7464 74.6442 82.9535 76.4368 100.513 76.4368C108.911 76.4368 117.485 76.0408 126.03 75.2487C155.57 72.518 179.119 67.1819 194.183 59.8655C207.514 53.3828 213.915 45.6078 212.682 37.3534C211.507 29.4534 203.227 21.595 189.308 15.2583C174.215 8.37963 153.632 3.64793 129.788 1.56349C129.201 1.5218 128.79 1.16744 128.819 0.771397C128.849 0.354508 129.319 0.0209961 129.906 0.0209961H129.935C129.965 0.0209961 129.994 0.0209961 130.053 0.0209961C154.219 2.12629 175.126 6.94136 190.483 13.9451C204.959 20.5528 213.621 28.8072 214.855 37.1867C216.147 45.9205 209.217 54.425 195.387 61.1578C179.824 68.7243 156.568 73.9772 126.265 76.7912C117.661 77.5833 108.97 78.0001 100.484 78.0001Z" fill="#E8FF00"/>
</g>
<defs>
<clipPath id="clip0_11961_8700">
<rect width="215" height="78" fill="white"/>
</clipPath>
</defs>
</svg>
